{"title":"White Collar - S04E02 - Most Wanted - 720p WEB-DL H.264 {$H@uN}","uid":7455386,"size":413511437,"categoryP":"video","categoryS":"hd___tv_shows","magnet":"?xt=urn:btih:a623d69d48a1fc362e7469f747ae1fe5e5e29805&amp;dn=White+Collar+-+S04E02+-+Most+Wanted+-+720p+WEB-DL+H.264+%7B%24H%40uN%7D&amp;tr=udp%3A%2F%2Ftracker.openbittorrent.com%3A80&amp;tr=udp%3A%2F%2Fopen.demonii.com%3A1337&amp;tr=udp%3A%2F%2Ftracker.coppersurfer.tk%3A6969&amp;tr=udp%3A%2F%2Fexodus.desync.com%3A6969","seeders":0,"leechers":3,"uploader":"ShaunGP","files":3,"time":1342651262,"description":"White Collar - S04E02 - Most Wanted - 720p WEB-DL H.264 {$H@uN}\n\n\nGeneral Info:\n\nComplete name                  : White Collar - S04E02 - Most Wanted - 720p WEB-DL H.264 {$H@uN}.mkv\nOriginal air date              : July 17 2012\nGenre                          : Police procedural, Comedy-Drama\nLanguage                       : English\nEncoder                        : $H@uN\nFile format                    : Matroska\nFile size                      : 394 MiB\nDuration                       : 42mn 23s\nOverall bit rate               : 1 301 Kbps\n\n\nVideo:\n\nFormat                         : AVC\nDuration                       : 42mn 23s\nBit rate                       : 1 200 Kbps\nWidth                          : 1 280 pixels\nHeight                         : 720 pixels\nDisplay aspect ratio           : 16:9\nFrame rate mode                : Variable\nFrame rate                     : 23.976 fps\nColor space                    : YUV\nChroma subsampling             : 4:2:0\nBit depth                      : 8 bits\nScan type                      : Progressive\nBits/(Pixel*Frame)             : 0.054\nStream size                    : 357 MiB (91%)\nWriting library                : x264 core 112\nLaguage                        : English\nSubtitles                      : Seperate .srt file included\n\n\nAudio:\n\nFormat                         : AC-3\nMode extension                 : CM (complete main)\nCodec ID                       : A_AC3\nDuration                       : 42mn 23s\nBit rate mode                  : Constant\nBit rate                       : 96 Kbps\nChannel(s)                     : 2 channels\nChannel positions              : Front: L R\nSampling rate                  : 48.0 KHz\nBit depth                      : 16 bits\nCompression mode               : Lossy\nStream size                    : 29.1 MiB (7%)\nLanguage                       : English\n\nScreen Shots:\n\ni1140.photobucket.com/albums/n566/ShaunGP/ScreenShots2/WhiteCollarS04E02MostWanted720pWEB-DLmkv_snapshot_0609_20120719_0010.jpg\n\ni1140.photobucket.com/albums/n566/ShaunGP/ScreenShots2/WhiteCollarS04E02MostWanted720pWEB-DLmkv_snapshot_3710_20120719_0011.jpg\n\n\nEncoder's Notes:\n\nDo Provide Feedback.\nKeep in Mind, you are charged nothing for Downloading a TORRENT,\nso its your duty to SEED n keep the torrent alive for as long as possible.\nEnjoy..!!! Keep Seeding till 1:1 ratio...","torrent":{"xt":"urn:btih:a623d69d48a1fc362e7469f747ae1fe5e5e29805","amp;dn":"White+Collar+-+S04E02+-+Most+Wanted+-+720p+WEB-DL+H.264+%7B%24H%40uN%7D","amp;tr":["udp%3A%2F%2Ftracker.openbittorrent.com%3A80","udp%3A%2F%2Fopen.demonii.com%3A1337","udp%3A%2F%2Ftracker.coppersurfer.tk%3A6969","udp%3A%2F%2Fexodus.desync.com%3A6969"],"infoHash":"a623d69d48a1fc362e7469f747ae1fe5e5e29805","infoHashBuffer":{"type":"Buffer","data":[166,35,214,157,72,161,252,54,46,116,105,247,71,174,31,229,229,226,152,5]},"announce":[],"urlList":[]}}